<svg width="36" height="55" viewBox="0 0 36 55" fill="none" xmlns="http://www.w3.org/2000/svg">
<path d="M2.2 52.8L4.4 55H0L2.2 52.8Z" fill="#0980D6"/>
<path d="M2.2 52.8L4.4 55H0L2.2 52.8Z" fill="#0980D6"/>
<path d="M6.59999 52.8L8.79999 55H4.39999L6.59999 52.8Z" fill="#0672C0"/>
<path d="M11 52.8L13.2 55H8.79999L11 52.8Z" fill="#0566AC"/>
<path d="M11 52.8L13.2 50.6V55L11 52.8Z" fill="#045692"/>
<path d="M4.4 55L6.6 52.8H2.2L4.4 55Z" fill="#0366AE"/>
<path d="M2.2 52.8L0 55V50.6L2.2 52.8Z" fill="#279DF2"/>
<path d="M0 50.6L2.2 48.4V52.8L0 50.6Z" fill="#1389DE"/>
<path d="M4.4 50.6L6.6 52.8H2.2L4.4 50.6Z" fill="#3E95D3"/>
<path d="M8.79999 50.6L11 52.8H6.59999L8.79999 50.6Z" fill="#57AFEE"/>
<path d="M6.59999 52.8H11L8.79999 55L6.59999 52.8Z" fill="#12649E"/>
<path d="M2.2 48.4L4.4 50.6L2.2 52.8V48.4Z" fill="#2F6F9E"/>
<path d="M4.39999 50.6H8.79999L6.59999 52.8L4.39999 50.6Z" fill="#1C95ED"/>
<path d="M8.79999 50.6H13.2L11 52.8L8.79999 50.6Z" fill="#0671BE"/>
<path d="M0 46.2V50.6L2.2 48.4L0 46.2Z" fill="#116DF8"/>
<path d="M0 46.2L2.2 44V48.4L0 46.2Z" fill="#376FFF"/>
<path d="M6.6 48.4L4.4 50.6L2.2 48.4H6.6Z" fill="#1875FF"/>
<path d="M6.59999 48.4L8.79999 50.6H4.39999L6.59999 48.4Z" fill="#024EC0"/>
<path d="M11 48.4L13.2 50.6H8.79999L11 48.4Z" fill="#003D99"/>
<path d="M13.2 46.2V50.6L11 48.4L13.2 46.2Z" fill="#0B3574"/>
<path d="M6.59999 48.4H11L8.79999 50.6L6.59999 48.4Z" fill="#5395F8"/>
<path d="M4.4 46.2L6.6 48.4H2.2L4.4 46.2Z" fill="#2F5EA5"/>
<path d="M8.79999 46.2L11 48.4H6.59999L8.79999 46.2Z" fill="#4E7DC5"/>
<path d="M2.2 44L4.4 46.2L2.2 48.4V44Z" fill="#0061F2"/>
<path d="M8.79999 46.2L6.59999 48.4L4.39999 46.2H8.79999Z" fill="#275EAF"/>
<path d="M8.79999 46.2H13.2L11 48.4L8.79999 46.2Z" fill="#001AFF"/>
<path d="M6.59999 44L8.79999 46.2H4.39999L6.59999 44Z" fill="#5A66CE"/>
<path d="M11 44L13.2 46.2H8.79999L11 44Z" fill="#000F99"/>
<path d="M13.2 41.8V46.2L11 44L13.2 41.8Z" fill="#260FB5"/>
<path d="M13.2 41.8L11 44V39.6L13.2 41.8Z" fill="#000684"/>
<path d="M8.79999 46.2L11 44H6.59999L8.79999 46.2Z" fill="#212FAD"/>
<path d="M2.2 44H6.6L4.4 46.2L2.2 44Z" fill="#9198D9"/>
<path d="M0 41.8L2.2 44L0 46.2V41.8Z" fill="#92B0FD"/>
<path d="M2.2 39.6V44L0 41.8L2.2 39.6Z" fill="#B7B8D3"/>
<path d="M4.4 41.8L6.6 44H2.2L4.4 41.8Z" fill="#6C8BDA"/>
<path d="M8.79999 41.8L11 44H6.59999L8.79999 41.8Z" fill="#000463"/>
<path d="M6.59999 44L8.79999 41.8H4.39999L6.59999 44Z" fill="#1219B8"/>
<path d="M11 39.6V44L8.79999 41.8L11 39.6Z" fill="#3036C6"/>
<path d="M2.2 39.6L4.4 41.8L2.2 44V39.6Z" fill="#9B9DD1"/>
<path d="M6.6 39.6L4.4 41.8L2.2 39.6H6.6Z" fill="#797CCC"/>
<path d="M6.59999 39.6L8.79999 41.8H4.39999L6.59999 39.6Z" fill="#5E63DA"/>
<path d="M8.79999 41.8L11 39.6H6.59999L8.79999 41.8Z" fill="#5156D1"/>
<path d="M0 37.4L2.2 39.6L0 41.8V37.4Z" fill="#D3D4E7"/>
<path d="M4.4 37.4L6.6 39.6H2.2L4.4 37.4Z" fill="#544DA8"/>
<path d="M8.79999 37.4L11 39.6H6.59999L8.79999 37.4Z" fill="#2419A7"/>
<path d="M13.2 37.4V41.8L11 39.6L13.2 37.4Z" fill="#000460"/>
<path d="M0 37.4L2.2 35.2V39.6L0 37.4Z" fill="#A2A5D3"/>
<path d="M2.2 35.2L4.4 37.4L2.2 39.6V35.2Z" fill="#7E84DE"/>
<path d="M8.79999 37.4L6.59999 39.6L4.39999 37.4H8.79999Z" fill="#433AAA"/>
<path d="M6.59999 35.2L8.79999 37.4H4.39999L6.59999 35.2Z" fill="#2F287C"/>
<path d="M11 35.2L13.2 37.4L11 39.6V35.2Z" fill="#220180"/>
<path d="M11 35.2V39.6L8.79999 37.4L11 35.2Z" fill="#4D2AB1"/>
<path d="M6.6 35.2L4.4 37.4L2.2 35.2H6.6Z" fill="#3D33B6"/>
<path d="M11 35.2L8.79999 37.4L6.59999 35.2H11Z" fill="#6A48CD"/>
<path d="M0 33L2.2 35.2L0 37.4V33Z" fill="#B9B5EA"/>
<path d="M4.4 33L6.6 35.2H2.2L4.4 33Z" fill="#7770CB"/>
<path d="M8.79999 33L11 35.2H6.59999L8.79999 33Z" fill="#4E2FA5"/>
<path d="M13.2 33V37.4L11 35.2L13.2 33Z" fill="#26046D"/>
<path d="M0 33L2.2 30.8V35.2L0 33Z" fill="#C3C0E2"/>
<path d="M4.4 33L2.2 35.2V30.8L4.4 33Z" fill="#A19DDC"/>
<path d="M8.79999 33L6.59999 35.2L4.39999 33H8.79999Z" fill="#544EA3"/>
<path d="M13.2 33L11 35.2V30.8L13.2 33Z" fill="#4D1C8B"/>
<path d="M11 30.8V35.2L8.79999 33L11 30.8Z" fill="#341688"/>
<path d="M6.59999 30.8L8.79999 33H4.39999L6.59999 30.8Z" fill="#5E55CF"/>
<path d="M2.2 30.8L0 33V28.6L2.2 30.8Z" fill="#D7D5F5"/>
<path d="M6.6 30.8L4.4 33L2.2 30.8H6.6Z" fill="#8C87D1"/>
<path d="M8.79999 33L11 30.8H6.59999L8.79999 33Z" fill="#595498"/>
<path d="M13.2 28.6V33L11 30.8L13.2 28.6Z" fill="#441D76"/>
<path d="M2.2 26.4V30.8L0 28.6L2.2 26.4Z" fill="#BBB2D6"/>
<path d="M2.2 26.4L4.4 28.6L2.2 30.8V26.4Z" fill="#BBB7F9"/>
<path d="M4.4 28.6L6.6 30.8H2.2L4.4 28.6Z" fill="#6660BD"/>
<path d="M8.79999 28.6L11 30.8H6.59999L8.79999 28.6Z" fill="#2B24A4"/>
<path d="M11 26.4V30.8L13.2 28.6L11 26.4Z" fill="#4E00B0"/>
<path d="M8.79999 28.6L11 26.4L11 30.8L8.79999 28.6Z" fill="#8056B5"/>
<path d="M8.79999 28.6L6.59999 30.8L4.39999 28.6H8.79999Z" fill="#524CB6"/>
<path d="M6.6 26.4L4.4 28.6L2.2 26.4H6.6Z" fill="#7974C2"/>
<path d="M6.59999 26.4L8.8 28.6H4.39999L6.59999 26.4Z" fill="#55518C"/>
<path d="M11 26.4L8.79999 28.6L6.59999 26.4H11Z" fill="#6851C4"/>
<path d="M0 24.2L2.2 26.4L0 28.6V24.2Z" fill="#A196B8"/>
<path d="M4.4 24.2L6.6 26.4H2.2L4.4 24.2Z" fill="#B192D9"/>
<path d="M8.79999 24.2L11 26.4H6.59999L8.79999 24.2Z" fill="#7854A7"/>
<path d="M13.2 24.2V28.6L11 26.4L13.2 24.2Z" fill="#410094"/>
<path d="M2.2 22V26.4L0 24.2L2.2 22Z" fill="#DBC0FD"/>
<path d="M2.2 22L4.4 24.2L2.2 26.4V22Z" fill="#C0A5E2"/>
<path d="M6.59999 26.4L8.79999 24.2H4.39999L6.59999 26.4Z" fill="#9A81B9"/>
<path d="M13.2 24.2L11 26.4V22L13.2 24.2Z" fill="#4F2E78"/>
<path d="M11 22V26.4L8.79999 24.2L11 22Z" fill="#6A4D8F"/>
<path d="M6.59999 22L8.79999 24.2H4.39999L6.59999 22Z" fill="#8C61C1"/>
<path d="M4.4 24.2L6.6 22H2.2L4.4 24.2Z" fill="#B48EE6"/>
<path d="M8.79999 24.2L11 22H6.59999L8.79999 24.2Z" fill="#6636A3"/>
<path d="M2.2 22L0 24.2V19.8L2.2 22Z" fill="#D8AFF8"/>
<path d="M4.4 19.8L6.6 22H2.2L4.4 19.8Z" fill="#AA85DA"/>
<path d="M8.79999 19.8L11 22H6.59999L8.79999 19.8Z" fill="#8C55D2"/>
<path d="M13.2 19.8V24.2L11 22L13.2 19.8Z" fill="#6826BC"/>
<path d="M2.2 17.6V22L0 19.8L2.2 17.6Z" fill="#D0A6F1"/>
<path d="M2.2 17.6L4.4 19.8L2.2 22V17.6Z" fill="#C488F3"/>
<path d="M2.2 17.6V22L0 19.8L2.2 17.6Z" fill="#CE9DF4"/>
<path d="M6.59999 22L8.79999 19.8H4.39999L6.59999 22Z" fill="#9968D8"/>
<path d="M13.2 19.8L11 22V17.6L13.2 19.8Z" fill="#573285"/>
<path d="M11 17.6V22L8.79999 19.8L11 17.6Z" fill="#7543B4"/>
<path d="M2.2 17.6H6.6L4.4 19.8L2.2 17.6Z" fill="#AC6ADF"/>
<path d="M6.59999 17.6L8.79999 19.8H4.39999L6.59999 17.6Z" fill="#A152DF"/>
<path d="M6.59999 17.6H11L8.79999 19.8L6.59999 17.6Z" fill="#9320EC"/>
<path d="M0 15.4L2.2 17.6L0 19.8V15.4Z" fill="#D179FB"/>
<path d="M0 15.4L2.2 13.2V17.6L0 15.4Z" fill="#E77EF8"/>
<path d="M4.4 15.4L6.6 17.6H2.2L4.4 15.4Z" fill="#D540EE"/>
<path d="M8.79999 15.4L11 17.6H6.59999L8.79999 15.4Z" fill="#C816E6"/>
<path d="M13.2 15.4V19.8L11 17.6L13.2 15.4Z" fill="#57009C"/>
<path d="M2.2 13.2L4.4 15.4L2.2 17.6V13.2Z" fill="#D75EEB"/>
<path d="M8.79999 15.4L6.59999 17.6L4.39999 15.4H8.79999Z" fill="#E12BFF"/>
<path d="M13.2 15.4L11 17.6V13.2L13.2 15.4Z" fill="#7A008D"/>
<path d="M11 13.2V17.6L8.79999 15.4L11 13.2Z" fill="#980AAF"/>
<path d="M0 11L2.2 13.2L0 15.4V11Z" fill="#F14AFF"/>
<path d="M6.59999 13.2L8.79999 15.4H4.39999L6.59999 13.2Z" fill="#D033DE"/>
<path d="M2.2 13.2H6.6L4.4 15.4L2.2 13.2Z" fill="#D147DD"/>
<path d="M6.59999 13.2H11L8.79999 15.4L6.59999 13.2Z" fill="#AB12B8"/>
<path d="M13.2 11V15.4L11 13.2L13.2 11Z" fill="#8F00A6"/>
<path d="M2.2 8.79999V13.2L0 11L2.2 8.79999Z" fill="#F479FF"/>
<path d="M4.4 11L6.6 13.2H2.2L4.4 11Z" fill="#DF5BE2"/>
<path d="M8.79999 11L11 13.2H6.59999L8.79999 11Z" fill="#9E28A0"/>
<path d="M2.19999 8.79999L2.2 13.2L4.4 11L2.19999 8.79999Z" fill="#FB5AFF"/>
<path d="M8.79999 11L6.59999 13.2L4.39999 11H8.79999Z" fill="#B446B7"/>
<path d="M13.2 11L11 13.2V8.79999L13.2 11Z" fill="#87038A"/>
<path d="M11 8.79999V13.2L8.79999 11L11 8.79999Z" fill="#9B059E"/>
<path d="M0 6.59999L2.2 8.79999L0 11V6.59999Z" fill="#EA42CF"/>
<path d="M6.6 8.79999L4.4 11L2.2 8.79999H6.6Z" fill="#C02EA9"/>
<path d="M6.59999 8.79999L8.79999 11H4.39999L6.59999 8.79999Z" fill="#B5199C"/>
<path d="M8.79999 11L11 8.79999H6.59999L8.79999 11Z" fill="#AD0D94"/>
<path d="M13.2 6.59999V11L11 8.79999L13.2 6.59999Z" fill="#8A0374"/>
<path d="M0 6.59999L2.2 4.39999V8.79999L0 6.59999Z" fill="#FF68E7"/>
<path d="M2.2 4.39999L4.4 6.59999L2.2 8.79999V4.39999Z" fill="#EF56D6"/>
<path d="M4.4 6.59999L6.6 8.79999H2.2L4.4 6.59999Z" fill="#E147C9"/>
<path d="M8.79999 6.59999L11 8.79999H6.59999L8.79999 6.59999Z" fill="#991886"/>
<path d="M6.59999 8.79999L8.79999 6.59999H4.39999L6.59999 8.79999Z" fill="#C438AE"/>
<path d="M13.2 6.59999L11 8.79999V4.39999L13.2 6.59999Z" fill="#7A0068"/>
<path d="M11 4.39999V8.79999L8.79999 6.59999L11 4.39999Z" fill="#B3139A"/>
<path d="M11 4.4L13.2 2.2V6.6L11 4.4Z" fill="#890965"/>
<path d="M8.79999 6.59999L6.59999 4.39999H11L8.79999 6.59999Z" fill="#D3179F"/>
<path d="M6.59999 4.39999L8.79999 6.59999H4.39999L6.59999 4.39999Z" fill="#DE2CAC"/>
<path d="M6.6 4.39999L4.4 6.59999L2.2 4.39999H6.6Z" fill="#F03DBE"/>
<path d="M2.2 4.4L0 6.6V2.2L2.2 4.4Z" fill="#F47ED3"/>
<path d="M4.4 2.2L6.6 4.4H2.2L4.4 2.2Z" fill="#E760C1"/>
<path d="M8.79999 2.2L11 4.4H6.59999L8.79999 2.2Z" fill="#D651B0"/>
<path d="M0 2.2L2.2 0V4.4L0 2.2Z" fill="#FFA9E7"/>
<path d="M2.2 0L4.4 2.2L2.2 4.4V0Z" fill="#DF8BC7"/>
<path d="M8.79999 2.2L6.59999 4.4L4.39999 2.2H8.79999Z" fill="#DA53B4"/>
<path d="M11 0V4.4L8.79999 2.2L11 0Z" fill="#C2379B"/>
<path d="M13.2 2.2L11 4.4V0L13.2 2.2Z" fill="#A00B77"/>
<path d="M6.6 0L4.4 2.2L2.2 0H6.6Z" fill="#DA5EB7"/>
<path d="M6.59999 0L8.79999 2.2H4.39999L6.59999 0Z" fill="#D64BAF"/>
<path d="M11 0L8.79999 2.2L6.59999 0H11Z" fill="#D224A2"/>
<path d="M15.4 0L13.2 2.2L11 0H15.4Z" fill="#D50E86"/>
<path d="M13.2 2.2L15.4 4.4L13.2 6.6V2.2Z" fill="#97005B"/>
<path d="M15.4 6.59999H17.6L15.4 4.39999L13.2 6.59999H15.4Z" fill="#A42370"/>
<path d="M15.4 0L17.6 2.2H13.2L15.4 0Z" fill="#EF32A4"/>
<path d="M17.6 2.2L15.4 4.4L13.2 2.2H17.6Z" fill="#AF1F75"/>
<path d="M17.6 6.59999L15.4 8.79999L13.2 6.59999H17.6Z" fill="#7C0269"/>
<path d="M15.4 8.79999L17.6 11H13.2L15.4 8.79999Z" fill="#850160"/>
<path d="M13.2 6.59999L15.4 8.79999L13.2 11V6.59999Z" fill="#6B0A5C"/>
<path d="M15.4 0H19.8L17.6 2.2L15.4 0Z" fill="#FF51BA"/>
<path d="M17.6 2.2L19.8 4.4H15.4L17.6 2.2Z" fill="#CB2186"/>
<path d="M15.4 4.39999H19.8L17.6 6.59999L15.4 4.39999Z" fill="#B43982"/>
<path d="M17.6 6.59999L19.8 8.79999H15.4L17.6 6.59999Z" fill="#910D7C"/>
<path d="M19.8 8.79999L17.6 11L15.4 8.79999H19.8Z" fill="#740254"/>
<path d="M19.8 0L22 2.2H17.6L19.8 0Z" fill="#FB35AC"/>
<path d="M17.6 2.2H22L19.8 4.4L17.6 2.2Z" fill="#DE2594"/>
<path d="M19.8 4.39999L22 6.59999H17.6L19.8 4.39999Z" fill="#A83479"/>
<path d="M19.8 8.79999L22 11H17.6L19.8 8.79999Z" fill="#8C064E"/>
<path d="M19.8 8.79999L22 6.59999H17.6L19.8 8.79999Z" fill="#9E0874"/>
<path d="M24.2 0L22 2.2L19.8 0H24.2Z" fill="#FA1F88"/>
<path d="M22 2.2L24.2 4.4H19.8L22 2.2Z" fill="#EB38A3"/>
<path d="M24.2 4.39999L22 6.59999L19.8 4.39999H24.2Z" fill="#A8285E"/>
<path d="M22 6.59999L24.2 8.79999H19.8L22 6.59999Z" fill="#95065C"/>
<path d="M22 11L24.2 8.79999H19.8L22 11Z" fill="#75003F"/>
<path d="M24.2 0L26.4 2.2H22L24.2 0Z" fill="#FF4E8D"/>
<path d="M26.4 2.2L24.2 4.4L22 2.2H26.4Z" fill="#DE2C97"/>
<path d="M24.2 4.39999L26.4 6.59999H22L24.2 4.39999Z" fill="#BA0C55"/>
<path d="M22 6.59999H26.4L24.2 8.79999L22 6.59999Z" fill="#AF1572"/>
<path d="M24.2 8.79999L26.4 11H22L24.2 8.79999Z" fill="#8E0E53"/>
<path d="M24.2 0H28.6L26.4 2.2L24.2 0Z" fill="#FF689E"/>
<path d="M26.4 2.2L28.6 4.4H24.2L26.4 2.2Z" fill="#F225A0"/>
<path d="M24.2 4.39999H28.6L26.4 6.59999L24.2 4.39999Z" fill="#D10E54"/>
<path d="M26.4 6.59999L28.6 8.79999H24.2L26.4 6.59999Z" fill="#C51981"/>
<path d="M28.6 8.79999L26.4 11L24.2 8.79999H28.6Z" fill="#850D4E"/>
<path d="M28.6 0L30.8 2.2H26.4L28.6 0Z" fill="#FF80AD"/>
<path d="M30.8 2.2L28.6 4.4L26.4 2.2H30.8Z" fill="#F2257B"/>
<path d="M28.6 4.39999L30.8 6.59999H26.4L28.6 4.39999Z" fill="#E33473"/>
<path d="M30.8 6.59999L28.6 8.79999L26.4 6.59999H30.8Z" fill="#B62169"/>
<path d="M28.6 8.79999L30.8 11H26.4L28.6 8.79999Z" fill="#8F0436"/>
<path d="M28.6 0H33L30.8 2.2L28.6 0Z" fill="#FF5E8E"/>
<path d="M30.8 2.2L33 4.4H28.6L30.8 2.2Z" fill="#F43B89"/>
<path d="M28.6 4.39999H33L30.8 6.59999L28.6 4.39999Z" fill="#BC265C"/>
<path d="M30.8 6.59999L33 8.79999H28.6L30.8 6.59999Z" fill="#9A064D"/>
<path d="M33 8.79999L30.8 11L28.6 8.79999H33Z" fill="#7B1238"/>
<path d="M33 0L35.2 2.2H30.8L33 0Z" fill="#FF3773"/>
<path d="M35.2 2.2L33 4.4L30.8 2.2H35.2Z" fill="#E12071"/>
<path d="M35.2 2.2V6.6L33 4.4L35.2 2.2Z" fill="#C80054"/>
<path d="M33 4.39999L35.2 6.59999H30.8L33 4.39999Z" fill="#DA2C6B"/>
<path d="M35.2 6.59999L33 8.79999L30.8 6.59999H35.2Z" fill="#9A064D"/>
<path d="M35.2 6.59999V11L33 8.79999L35.2 6.59999Z" fill="#B8226A"/>
<path d="M33 8.79999L35.2 11H30.8L33 8.79999Z" fill="#8B0032"/>
<path d="M35.2 11L33 13.2L30.8 11H35.2Z" fill="#9E004C"/>
<path d="M33 8.79999L35.2 11H30.8L33 8.79999Z" fill="#AA064B"/>
<path d="M30.8 11L28.6 13.2L26.4 11H30.8Z" fill="#A81452"/>
<path d="M26.4 11L28.6 13.2L26.4 15.4V11Z" fill="#B90491"/>
<path d="M26.4 11V13.2L24.2 11H26.4Z" fill="#A4107A"/>
<path d="M30.8 11L33 13.2H28.6L30.8 11Z" fill="#88063D"/>
<path d="M35.1963 11V15.4L33 13.2L35.1963 11Z" fill="#9A0066"/>
<path d="M28.6 13.2L30.8 15.4H26.4L28.6 13.2Z" fill="#C8119F"/>
<path d="M28.6 13.2H33L30.8 15.4L28.6 13.2Z" fill="#A90252"/>
<path d="M33 13.2L35.2 15.4H30.8L33 13.2Z" fill="#870161"/>
<path d="M26.4 15.4H30.8L28.6 17.6L26.4 15.4Z" fill="#D64091"/>
<path d="M30.8 15.4H35.2L33 17.6L30.8 15.4Z" fill="#B8146C"/>
<path d="M26.4 15.4L28.6 17.6L26.4 19.8V15.4Z" fill="#AB2485"/>
<path d="M30.8 15.4L33 17.6H28.6L30.8 15.4Z" fill="#CA3987"/>
<path d="M35.2 15.4V19.8L33 17.6L35.2 15.4Z" fill="#AC2052"/>
<path d="M28.6 17.6L30.8 19.8H26.4L28.6 17.6Z" fill="#CE347E"/>
<path d="M28.6 17.6H33L30.8 19.8L28.6 17.6Z" fill="#E7409A"/>
<path d="M33 17.6L35.2 19.8H30.8L33 17.6Z" fill="#CE346B"/>
<path d="M30.8 19.8L28.6 22L26.4 19.8H30.8Z" fill="#B02166"/>
<path d="M30.8 19.8H35.2L33 22L30.8 19.8Z" fill="#DA3D75"/>
<path d="M26.4 19.8L28.6 22L26.4 24.2V19.8Z" fill="#991554"/>
<path d="M30.8 19.8L33 22H28.6L30.8 19.8Z" fill="#DD2F6E"/>
<path d="M35.2 19.8V24.2L33 22L35.2 19.8Z" fill="#DF5677"/>
<path d="M28.6 22L30.8 24.2H26.4L28.6 22Z" fill="#BB0949"/>
<path d="M28.6 22H33L30.8 24.2L28.6 22Z" fill="#E51E66"/>
<path d="M33 22L35.2 24.2H30.8L33 22Z" fill="#FF557E"/>
<path d="M26.4 24.2H30.8L28.6 26.4L26.4 24.2Z" fill="#CB0F69"/>
<path d="M30.8 24.2H35.2L33 26.4L30.8 24.2Z" fill="#F5347A"/>
<path d="M35.2 24.2V28.6L33 26.4L35.2 24.2Z" fill="#D0057F"/>
<path d="M30.8 24.2L33 26.4H28.6L30.8 24.2Z" fill="#E61E7E"/>
<path d="M33 26.4L35.2 28.6H30.8L33 26.4Z" fill="#AE0269"/>
<path d="M28.6 26.4H33L30.8 28.6L28.6 26.4Z" fill="#9A016F"/>
<path d="M28.6 26.4L30.8 28.6H26.4L28.6 26.4Z" fill="#9A0182"/>
<path d="M26.4 24.2L28.6 26.4H24.2L26.4 24.2Z" fill="#AB0067"/>
<path d="M35.2 28.6V33L33 30.8L35.2 28.6Z" fill="#DA3D88"/>
<path d="M35.2 28.6L33 30.8L30.8 28.6H35.2Z" fill="#EA1279"/>
<path d="M30.8 28.6L33 30.8H28.6L30.8 28.6Z" fill="#D804A9"/>
<path d="M33 30.8L35.2 33H30.8L33 30.8Z" fill="#C9006D"/>
<path d="M33 35.2L35.2 33H30.8L33 35.2Z" fill="#95045B"/>
<path d="M33 30.8L30.8 33L28.6 30.8H33Z" fill="#B50B67"/>
<path d="M30.8 33L33 35.2H28.6L30.8 33Z" fill="#A20476"/>
<path d="M26.4 33H30.8L28.6 35.2L26.4 33Z" fill="#770056"/>
<path d="M28.6 30.8L30.8 33H26.4L28.6 30.8Z" fill="#9E0E7F"/>
<path d="M28.6 30.8L30.8 28.6H26.4L28.6 30.8Z" fill="#BD0B96"/>
<path d="M26.4 33L28.6 35.2H24.2L26.4 33Z" fill="#840670"/>
<path d="M26.4 33L28.6 30.8H24.2L26.4 33Z" fill="#850068"/>
<path d="M26.4 28.6L28.6 30.8H24.2L26.4 28.6Z" fill="#AC009B"/>
<path d="M26.4 28.6L28.6 26.4H24.2L26.4 28.6Z" fill="#97019A"/>
<path d="M26.4 24.2L24.2 26.4L22 24.2H26.4Z" fill="#AB009A"/>
<path d="M26.4 22V24.2H24.2L26.4 22Z" fill="#AB007B"/>
<path d="M24.2 26.4L26.4 28.6H22L24.2 26.4Z" fill="#72019A"/>
<path d="M22 28.6H26.4L24.2 30.8L22 28.6Z" fill="#9400AC"/>
<path d="M24.2 30.8L26.4 33H22L24.2 30.8Z" fill="#6D0470"/>
<path d="M22 33H26.4L24.2 35.2L22 33Z" fill="#6B0684"/>
<path d="M22 33L24.2 35.2H19.8L22 33Z" fill="#54037A"/>
<path d="M19.8 30.8H24.2L22 33L19.8 30.8Z" fill="#550063"/>
<path d="M22 28.6L24.2 30.8H19.8L22 28.6Z" fill="#78058B"/>
<path d="M19.8 26.4H24.2L22 28.6L19.8 26.4Z" fill="#830CAD"/>
<path d="M22 24.2L24.2 26.4H19.8L22 24.2Z" fill="#B20ACD"/>
<path d="M17.6 24.2H22L19.8 26.4L17.6 24.2Z" fill="#980DC9"/>
<path d="M19.8 26.4L22 28.6H17.6L19.8 26.4Z" fill="#710CAE"/>
<path d="M17.6 28.6H22L19.8 30.8L17.6 28.6Z" fill="#5C0086"/>
<path d="M19.8 30.8L22 33H17.6L19.8 30.8Z" fill="#560080"/>
<path d="M17.6 33H22L19.8 35.2L17.6 33Z" fill="#69009B"/>
<path d="M17.6 33L19.8 35.2H15.4L17.6 33Z" fill="#57009B"/>
<path d="M15.4 30.8H19.8L17.6 33L15.4 30.8Z" fill="#430262"/>
<path d="M17.6 28.6L19.8 30.8H15.4L17.6 28.6Z" fill="#6A1094"/>
<path d="M17.6 28.6L19.8 26.4H15.4L17.6 28.6Z" fill="#7705BC"/>
<path d="M17.6 24.2L19.8 26.4H15.4L17.6 24.2Z" fill="#8210B8"/>
<path d="M17.6 24.2L15.4 26.4L13.2 24.2H17.6Z" fill="#6E05A0"/>
<path d="M15.4 26.4L17.6 28.6H13.2L15.4 26.4Z" fill="#6A0CB4"/>
<path d="M15.4 30.8L17.6 28.6H13.2L15.4 30.8Z" fill="#5E187E"/>
<path d="M15.4 30.8L17.6 33H13.2L15.4 30.8Z" fill="#511170"/>
<path d="M13.2 33H17.6L15.4 35.2L13.2 33Z" fill="#32009B"/>
<path d="M15.4 26.4L13.2 28.6V24.2L15.4 26.4Z" fill="#5C05A0"/>
<path d="M13.2 28.6L15.4 30.8L13.2 33V28.6Z" fill="#511F79"/>
<path d="M13.2 33L15.4 35.2H13.2V33Z" fill="#2F0686"/>
</svg>
