<svg id='logo' id="logo" width="160" height="250" viewBox="0 0 160 250" fill="none" xmlns="http://www.w3.org/2000/svg">
<path d="M10 240L20 250H0L10 240Z" fill="#0980D6"/>
<path d="M10 240L20 250H0L10 240Z" fill="#0980D6"/>
<path d="M30 240L40 250H20L30 240Z" fill="#0672C0"/>
<path d="M50 240L60 250H40L50 240Z" fill="#0566AC"/>
<path d="M50 240L60 230V250L50 240Z" fill="#045692"/>
<path d="M20 250L30 240H10L20 250Z" fill="#0366AE"/>
<path d="M10 240L0 250V230L10 240Z" fill="#279DF2"/>
<path d="M0 230L10 220V240L0 230Z" fill="#1389DE"/>
<path d="M20 230L30 240H10L20 230Z" fill="#3E95D3"/>
<path d="M40 230L50 240H30L40 230Z" fill="#57AFEE"/>
<path d="M30 240H50L40 250L30 240Z" fill="#12649E"/>
<path d="M10 220L20 230L10 240V220Z" fill="#2F6F9E"/>
<path d="M20 230H40L30 240L20 230Z" fill="#1C95ED"/>
<path d="M40 230H60L50 240L40 230Z" fill="#0671BE"/>
<path d="M0 210V230L10 220L0 210Z" fill="#116DF8"/>
<path d="M0 210L10 200V220L0 210Z" fill="#376FFF"/>
<path d="M30 220L20 230L10 220H30Z" fill="#1875FF"/>
<path d="M30 220L40 230H20L30 220Z" fill="#024EC0"/>
<path d="M50 220L60 230H40L50 220Z" fill="#003D99"/>
<path d="M60 210V230L50 220L60 210Z" fill="#0B3574"/>
<path d="M30 220H50L40 230L30 220Z" fill="#5395F8"/>
<path d="M20 210L30 220H10L20 210Z" fill="#2F5EA5"/>
<path d="M40 210L50 220H30L40 210Z" fill="#4E7DC5"/>
<path d="M10 200L20 210L10 220V200Z" fill="#0061F2"/>
<path d="M40 210L30 220L20 210H40Z" fill="#275EAF"/>
<path d="M40 210H60L50 220L40 210Z" fill="#001AFF"/>
<path d="M30 200L40 210H20L30 200Z" fill="#5A66CE"/>
<path d="M50 200L60 210H40L50 200Z" fill="#000F99"/>
<path d="M60 190V210L50 200L60 190Z" fill="#260FB5"/>
<path d="M60 190L50 200V180L60 190Z" fill="#000684"/>
<path d="M40 210L50 200H30L40 210Z" fill="#212FAD"/>
<path d="M10 200H30L20 210L10 200Z" fill="#9198D9"/>
<path d="M0 190L10 200L0 210V190Z" fill="#92B0FD"/>
<path d="M10 180V200L0 190L10 180Z" fill="#B7B8D3"/>
<path d="M20 190L30 200H10L20 190Z" fill="#6C8BDA"/>
<path d="M40 190L50 200H30L40 190Z" fill="#000463"/>
<path d="M30 200L40 190H20L30 200Z" fill="#1219B8"/>
<path d="M50 180V200L40 190L50 180Z" fill="#3036C6"/>
<path d="M10 180L20 190L10 200V180Z" fill="#9B9DD1"/>
<path d="M30 180L20 190L10 180H30Z" fill="#797CCC"/>
<path d="M30 180L40 190H20L30 180Z" fill="#5E63DA"/>
<path d="M40 190L50 180H30L40 190Z" fill="#5156D1"/>
<path d="M0 170L10 180L0 190V170Z" fill="#D3D4E7"/>
<path d="M20 170L30 180H10L20 170Z" fill="#544DA8"/>
<path d="M40 170L50 180H30L40 170Z" fill="#2419A7"/>
<path d="M60 170V190L50 180L60 170Z" fill="#000460"/>
<path d="M0 170L10 160V180L0 170Z" fill="#A2A5D3"/>
<path d="M10 160L20 170L10 180V160Z" fill="#7E84DE"/>
<path d="M40 170L30 180L20 170H40Z" fill="#433AAA"/>
<path d="M30 160L40 170H20L30 160Z" fill="#2F287C"/>
<path d="M50 160L60 170L50 180V160Z" fill="#220180"/>
<path d="M50 160V180L40 170L50 160Z" fill="#4D2AB1"/>
<path d="M30 160L20 170L10 160H30Z" fill="#3D33B6"/>
<path d="M50 160L40 170L30 160H50Z" fill="#6A48CD"/>
<path d="M0 150L10 160L0 170V150Z" fill="#B9B5EA"/>
<path d="M20 150L30 160H10L20 150Z" fill="#7770CB"/>
<path d="M40 150L50 160H30L40 150Z" fill="#4E2FA5"/>
<path d="M60 150V170L50 160L60 150Z" fill="#26046D"/>
<path d="M0 150L10 140V160L0 150Z" fill="#C3C0E2"/>
<path d="M20 150L10 160V140L20 150Z" fill="#A19DDC"/>
<path d="M40 150L30 160L20 150H40Z" fill="#544EA3"/>
<path d="M60 150L50 160V140L60 150Z" fill="#4D1C8B"/>
<path d="M50 140V160L40 150L50 140Z" fill="#341688"/>
<path d="M30 140L40 150H20L30 140Z" fill="#5E55CF"/>
<path d="M10 140L0 150V130L10 140Z" fill="#D7D5F5"/>
<path d="M30 140L20 150L10 140H30Z" fill="#8C87D1"/>
<path d="M40 150L50 140H30L40 150Z" fill="#595498"/>
<path d="M60 130V150L50 140L60 130Z" fill="#441D76"/>
<path d="M10 120V140L0 130L10 120Z" fill="#BBB2D6"/>
<path d="M10 120L20 130L10 140V120Z" fill="#BBB7F9"/>
<path d="M20 130L30 140H10L20 130Z" fill="#6660BD"/>
<path d="M40 130L50 140H30L40 130Z" fill="#2B24A4"/>
<path d="M50 120V140L60 130L50 120Z" fill="#4E00B0"/>
<path d="M40 130L50 120L50 140L40 130Z" fill="#8056B5"/>
<path d="M40 130L30 140L20 130H40Z" fill="#524CB6"/>
<path d="M30 120L20 130L10 120H30Z" fill="#7974C2"/>
<path d="M30 120L40 130H20L30 120Z" fill="#55518C"/>
<path d="M50 120L40 130L30 120H50Z" fill="#6851C4"/>
<path d="M0 110L10 120L0 130V110Z" fill="#A196B8"/>
<path d="M20 110L30 120H10L20 110Z" fill="#B192D9"/>
<path d="M40 110L50 120H30L40 110Z" fill="#7854A7"/>
<path d="M60 110V130L50 120L60 110Z" fill="#410094"/>
<path d="M10 100V120L0 110L10 100Z" fill="#DBC0FD"/>
<path d="M10 100L20 110L10 120V100Z" fill="#C0A5E2"/>
<path d="M30 120L40 110H20L30 120Z" fill="#9A81B9"/>
<path d="M60 110L50 120V100L60 110Z" fill="#4F2E78"/>
<path d="M50 100V120L40 110L50 100Z" fill="#6A4D8F"/>
<path d="M30 100L40 110H20L30 100Z" fill="#8C61C1"/>
<path d="M20 110L30 100H10L20 110Z" fill="#B48EE6"/>
<path d="M40 110L50 100H30L40 110Z" fill="#6636A3"/>
<path d="M10 100L0 110V90L10 100Z" fill="#D8AFF8"/>
<path d="M20 90L30 100H10L20 90Z" fill="#AA85DA"/>
<path d="M40 90L50 100H30L40 90Z" fill="#8C55D2"/>
<path d="M60 90V110L50 100L60 90Z" fill="#6826BC"/>
<path d="M10 80V100L0 90L10 80Z" fill="#D0A6F1"/>
<path d="M10 80L20 90L10 100V80Z" fill="#C488F3"/>
<path d="M10 80V100L0 90L10 80Z" fill="#CE9DF4"/>
<path d="M30 100L40 90H20L30 100Z" fill="#9968D8"/>
<path d="M60 90L50 100V80L60 90Z" fill="#573285"/>
<path d="M50 80V100L40 90L50 80Z" fill="#7543B4"/>
<path d="M10 80H30L20 90L10 80Z" fill="#AC6ADF"/>
<path d="M30 80L40 90H20L30 80Z" fill="#A152DF"/>
<path d="M30 80H50L40 90L30 80Z" fill="#9320EC"/>
<path d="M0 70L10 80L0 90V70Z" fill="#D179FB"/>
<path d="M0 70L10 60V80L0 70Z" fill="#E77EF8"/>
<path d="M20 70L30 80H10L20 70Z" fill="#D540EE"/>
<path d="M40 70L50 80H30L40 70Z" fill="#C816E6"/>
<path d="M60 70V90L50 80L60 70Z" fill="#57009C"/>
<path d="M10 60L20 70L10 80V60Z" fill="#D75EEB"/>
<path d="M40 70L30 80L20 70H40Z" fill="#E12BFF"/>
<path d="M60 70L50 80V60L60 70Z" fill="#7A008D"/>
<path d="M50 60V80L40 70L50 60Z" fill="#980AAF"/>
<path d="M0 50L10 60L0 70V50Z" fill="#F14AFF"/>
<path d="M30 60L40 70H20L30 60Z" fill="#D033DE"/>
<path d="M10 60H30L20 70L10 60Z" fill="#D147DD"/>
<path d="M30 60H50L40 70L30 60Z" fill="#AB12B8"/>
<path d="M60 50V70L50 60L60 50Z" fill="#8F00A6"/>
<path d="M10 40V60L0 50L10 40Z" fill="#F479FF"/>
<path d="M20 50L30 60H10L20 50Z" fill="#DF5BE2"/>
<path d="M40 50L50 60H30L40 50Z" fill="#9E28A0"/>
<path d="M9.99998 40L10 60L20 50L9.99998 40Z" fill="#FB5AFF"/>
<path d="M40 50L30 60L20 50H40Z" fill="#B446B7"/>
<path d="M60 50L50 60V40L60 50Z" fill="#87038A"/>
<path d="M50 40V60L40 50L50 40Z" fill="#9B059E"/>
<path d="M0 30L10 40L0 50V30Z" fill="#EA42CF"/>
<path d="M30 40L20 50L10 40H30Z" fill="#C02EA9"/>
<path d="M30 40L40 50H20L30 40Z" fill="#B5199C"/>
<path d="M40 50L50 40H30L40 50Z" fill="#AD0D94"/>
<path d="M60 30V50L50 40L60 30Z" fill="#8A0374"/>
<path d="M0 30L10 20V40L0 30Z" fill="#FF68E7"/>
<path d="M10 20L20 30L10 40V20Z" fill="#EF56D6"/>
<path d="M20 30L30 40H10L20 30Z" fill="#E147C9"/>
<path d="M40 30L50 40H30L40 30Z" fill="#991886"/>
<path d="M30 40L40 30H20L30 40Z" fill="#C438AE"/>
<path d="M60 30L50 40V20L60 30Z" fill="#7A0068"/>
<path d="M50 20V40L40 30L50 20Z" fill="#B3139A"/>
<path d="M50 20L60 10V30L50 20Z" fill="#890965"/>
<path d="M40 30L30 20H50L40 30Z" fill="#D3179F"/>
<path d="M30 20L40 30H20L30 20Z" fill="#DE2CAC"/>
<path d="M30 20L20 30L10 20H30Z" fill="#F03DBE"/>
<path d="M10 20L0 30V10L10 20Z" fill="#F47ED3"/>
<path d="M20 10L30 20H10L20 10Z" fill="#E760C1"/>
<path d="M40 10L50 20H30L40 10Z" fill="#D651B0"/>
<path d="M0 10L10 0V20L0 10Z" fill="#FFA9E7"/>
<path d="M10 0L20 10L10 20V0Z" fill="#DF8BC7"/>
<path d="M40 10L30 20L20 10H40Z" fill="#DA53B4"/>
<path d="M50 0V20L40 10L50 0Z" fill="#C2379B"/>
<path d="M60 10L50 20V0L60 10Z" fill="#A00B77"/>
<path d="M30 0L20 10L10 0H30Z" fill="#DA5EB7"/>
<path d="M30 0L40 10H20L30 0Z" fill="#D64BAF"/>
<path d="M50 0L40 10L30 0H50Z" fill="#D224A2"/>
<path d="M70 0L60 10L50 0H70Z" fill="#D50E86"/>
<path d="M60 10L70 20L60 30V10Z" fill="#97005B"/>
<path d="M70 30H80L70 20L60 30H70Z" fill="#A42370"/>
<path d="M70 0L80 10H60L70 0Z" fill="#EF32A4"/>
<path d="M80 10L70 20L60 10H80Z" fill="#AF1F75"/>
<path d="M80 30L70 40L60 30H80Z" fill="#7C0269"/>
<path d="M70 40L80 50H60L70 40Z" fill="#850160"/>
<path d="M60 30L70 40L60 50V30Z" fill="#6B0A5C"/>
<path d="M70 0H90L80 10L70 0Z" fill="#FF51BA"/>
<path d="M80 10L90 20H70L80 10Z" fill="#CB2186"/>
<path d="M70 20H90L80 30L70 20Z" fill="#B43982"/>
<path d="M80 30L90 40H70L80 30Z" fill="#910D7C"/>
<path d="M90 40L80 50L70 40H90Z" fill="#740254"/>
<path d="M90 0L100 10H80L90 0Z" fill="#FB35AC"/>
<path d="M80 10H100L90 20L80 10Z" fill="#DE2594"/>
<path d="M90 20L100 30H80L90 20Z" fill="#A83479"/>
<path d="M90 40L100 50H80L90 40Z" fill="#8C064E"/>
<path d="M90 40L100 30H80L90 40Z" fill="#9E0874"/>
<path d="M110 0L100 10L90 0H110Z" fill="#FA1F88"/>
<path d="M100 10L110 20H90L100 10Z" fill="#EB38A3"/>
<path d="M110 20L100 30L90 20H110Z" fill="#A8285E"/>
<path d="M100 30L110 40H90L100 30Z" fill="#95065C"/>
<path d="M100 50L110 40H90L100 50Z" fill="#75003F"/>
<path d="M110 0L120 10H100L110 0Z" fill="#FF4E8D"/>
<path d="M120 10L110 20L100 10H120Z" fill="#DE2C97"/>
<path d="M110 20L120 30H100L110 20Z" fill="#BA0C55"/>
<path d="M100 30H120L110 40L100 30Z" fill="#AF1572"/>
<path d="M110 40L120 50H100L110 40Z" fill="#8E0E53"/>
<path d="M110 0H130L120 10L110 0Z" fill="#FF689E"/>
<path d="M120 10L130 20H110L120 10Z" fill="#F225A0"/>
<path d="M110 20H130L120 30L110 20Z" fill="#D10E54"/>
<path d="M120 30L130 40H110L120 30Z" fill="#C51981"/>
<path d="M130 40L120 50L110 40H130Z" fill="#850D4E"/>
<path d="M130 0L140 10H120L130 0Z" fill="#FF80AD"/>
<path d="M140 10L130 20L120 10H140Z" fill="#F2257B"/>
<path d="M130 20L140 30H120L130 20Z" fill="#E33473"/>
<path d="M140 30L130 40L120 30H140Z" fill="#B62169"/>
<path d="M130 40L140 50H120L130 40Z" fill="#8F0436"/>
<path d="M130 0H150L140 10L130 0Z" fill="#FF5E8E"/>
<path d="M140 10L150 20H130L140 10Z" fill="#F43B89"/>
<path d="M130 20H150L140 30L130 20Z" fill="#BC265C"/>
<path d="M140 30L150 40H130L140 30Z" fill="#9A064D"/>
<path d="M150 40L140 50L130 40H150Z" fill="#7B1238"/>
<path d="M150 0L160 10H140L150 0Z" fill="#FF3773"/>
<path d="M160 10L150 20L140 10H160Z" fill="#E12071"/>
<path d="M160 10V30L150 20L160 10Z" fill="#C80054"/>
<path d="M150 20L160 30H140L150 20Z" fill="#DA2C6B"/>
<path d="M160 30L150 40L140 30H160Z" fill="#9A064D"/>
<path d="M160 30V50L150 40L160 30Z" fill="#B8226A"/>
<path d="M150 40L160 50H140L150 40Z" fill="#8B0032"/>
<path d="M160 50L150 60L140 50H160Z" fill="#9E004C"/>
<path d="M150 40L160 50H140L150 40Z" fill="#AA064B"/>
<path d="M140 50L130 60L120 50H140Z" fill="#A81452"/>
<path d="M120 50L130 60L120 70V50Z" fill="#B90491"/>
<path d="M120 50V60L110 50H120Z" fill="#A4107A"/>
<path d="M140 50L150 60H130L140 50Z" fill="#88063D"/>
<path d="M159.983 50V70L150 60L159.983 50Z" fill="#9A0066"/>
<path d="M130 60L140 70H120L130 60Z" fill="#C8119F"/>
<path d="M130 60H150L140 70L130 60Z" fill="#A90252"/>
<path d="M150 60L160 70H140L150 60Z" fill="#870161"/>
<path d="M120 70H140L130 80L120 70Z" fill="#D64091"/>
<path d="M140 70H160L150 80L140 70Z" fill="#B8146C"/>
<path d="M120 70L130 80L120 90V70Z" fill="#AB2485"/>
<path d="M140 70L150 80H130L140 70Z" fill="#CA3987"/>
<path d="M160 70V90L150 80L160 70Z" fill="#AC2052"/>
<path d="M130 80L140 90H120L130 80Z" fill="#CE347E"/>
<path d="M130 80H150L140 90L130 80Z" fill="#E7409A"/>
<path d="M150 80L160 90H140L150 80Z" fill="#CE346B"/>
<path d="M140 90L130 100L120 90H140Z" fill="#B02166"/>
<path d="M140 90H160L150 100L140 90Z" fill="#DA3D75"/>
<path d="M120 90L130 100L120 110V90Z" fill="#991554"/>
<path d="M140 90L150 100H130L140 90Z" fill="#DD2F6E"/>
<path d="M160 90V110L150 100L160 90Z" fill="#DF5677"/>
<path d="M130 100L140 110H120L130 100Z" fill="#BB0949"/>
<path d="M130 100H150L140 110L130 100Z" fill="#E51E66"/>
<path d="M150 100L160 110H140L150 100Z" fill="#FF557E"/>
<path d="M120 110H140L130 120L120 110Z" fill="#CB0F69"/>
<path d="M140 110H160L150 120L140 110Z" fill="#F5347A"/>
<path d="M160 110V130L150 120L160 110Z" fill="#D0057F"/>
<path d="M140 110L150 120H130L140 110Z" fill="#E61E7E"/>
<path d="M150 120L160 130H140L150 120Z" fill="#AE0269"/>
<path d="M130 120H150L140 130L130 120Z" fill="#9A016F"/>
<path d="M130 120L140 130H120L130 120Z" fill="#9A0182"/>
<path d="M120 110L130 120H110L120 110Z" fill="#AB0067"/>
<path d="M160 130V150L150 140L160 130Z" fill="#DA3D88"/>
<path d="M160 130L150 140L140 130H160Z" fill="#EA1279"/>
<path d="M140 130L150 140H130L140 130Z" fill="#D804A9"/>
<path d="M150 140L160 150H140L150 140Z" fill="#C9006D"/>
<path d="M150 160L160 150H140L150 160Z" fill="#95045B"/>
<path d="M150 140L140 150L130 140H150Z" fill="#B50B67"/>
<path d="M140 150L150 160H130L140 150Z" fill="#A20476"/>
<path d="M120 150H140L130 160L120 150Z" fill="#770056"/>
<path d="M130 140L140 150H120L130 140Z" fill="#9E0E7F"/>
<path d="M130 140L140 130H120L130 140Z" fill="#BD0B96"/>
<path d="M120 150L130 160H110L120 150Z" fill="#840670"/>
<path d="M120 150L130 140H110L120 150Z" fill="#850068"/>
<path d="M120 130L130 140H110L120 130Z" fill="#AC009B"/>
<path d="M120 130L130 120H110L120 130Z" fill="#97019A"/>
<path d="M120 110L110 120L100 110H120Z" fill="#AB009A"/>
<path d="M120 100V110H110L120 100Z" fill="#AB007B"/>
<path d="M110 120L120 130H100L110 120Z" fill="#72019A"/>
<path d="M100 130H120L110 140L100 130Z" fill="#9400AC"/>
<path d="M110 140L120 150H100L110 140Z" fill="#6D0470"/>
<path d="M100 150H120L110 160L100 150Z" fill="#6B0684"/>
<path d="M100 150L110 160H90L100 150Z" fill="#54037A"/>
<path d="M90 140H110L100 150L90 140Z" fill="#550063"/>
<path d="M100 130L110 140H90L100 130Z" fill="#78058B"/>
<path d="M90 120H110L100 130L90 120Z" fill="#830CAD"/>
<path d="M100 110L110 120H90L100 110Z" fill="#B20ACD"/>
<path d="M80 110H100L90 120L80 110Z" fill="#980DC9"/>
<path d="M90 120L100 130H80L90 120Z" fill="#710CAE"/>
<path d="M80 130H100L90 140L80 130Z" fill="#5C0086"/>
<path d="M90 140L100 150H80L90 140Z" fill="#560080"/>
<path d="M80 150H100L90 160L80 150Z" fill="#69009B"/>
<path d="M80 150L90 160H70L80 150Z" fill="#57009B"/>
<path d="M70 140H90L80 150L70 140Z" fill="#430262"/>
<path d="M80 130L90 140H70L80 130Z" fill="#6A1094"/>
<path d="M80 130L90 120H70L80 130Z" fill="#7705BC"/>
<path d="M80 110L90 120H70L80 110Z" fill="#8210B8"/>
<path d="M80 110L70 120L60 110H80Z" fill="#6E05A0"/>
<path d="M70 120L80 130H60L70 120Z" fill="#6A0CB4"/>
<path d="M70 140L80 130H60L70 140Z" fill="#5E187E"/>
<path d="M70 140L80 150H60L70 140Z" fill="#511170"/>
<path d="M60 150H80L70 160L60 150Z" fill="#32009B"/>
<path d="M70 120L60 130V110L70 120Z" fill="#5C05A0"/>
<path d="M60 130L70 140L60 150V130Z" fill="#511F79"/>
<path d="M60 150L70 160H60V150Z" fill="#2F0686"/>
</svg>
